<?xml version="1.0" standalone="no"?>
<!DOCTYPE svg PUBLIC "-//W3C//DTD SVG 20010904//EN"
 "http://www.w3.org/TR/2001/REC-SVG-20010904/DTD/svg10.dtd">
<svg version="1.0" xmlns="http://www.w3.org/2000/svg"
 width="16667.000000pt" height="4603.000000pt" viewBox="0 0 16667.000000 4603.000000"
 preserveAspectRatio="xMidYMid meet">

<g transform="translate(0.000000,4603.000000) scale(0.100000,-0.100000)"
fill="#000000" stroke="none">
<path d="M22615 46024 c-3916 -67 -7674 -1094 -11035 -3017 -4166 -2384 -7492
-6019 -9493 -10372 -1580 -3439 -2276 -7195 -2042 -11025 309 -5059 2303
-9886 5659 -13705 606 -689 1341 -1428 2031 -2040 2148 -1908 4650 -3402 7350
-4390 1610 -589 3290 -995 5008 -1211 159 -20 291 -34 293 -31 3 3 -83 216
-192 473 -108 258 -218 526 -244 595 -59 154 -183 533 -240 730 l-42 146 -252
42 c-1801 304 -3572 851 -5260 1624 -465 212 -1200 591 -1646 847 -1570 901
-2999 1976 -4264 3209 -2205 2150 -3884 4682 -4989 7526 -685 1765 -1129 3627
-1316 5525 -127 1281 -135 2624 -26 3927 356 4225 1988 8244 4691 11549 2884
3526 6824 6032 11219 7133 1389 348 2722 539 4270 613 566 26 1586 14 2245
-28 5617 -356 10843 -2943 14567 -7210 2680 -3072 4423 -6877 4987 -10889 19
-138 40 -296 47 -352 l12 -103 81 57 c193 134 458 341 996 778 316 257 578
470 583 474 4 4 -15 131 -42 282 -558 3076 -1742 6003 -3484 8613 -1537 2304
-3494 4327 -5747 5942 -3666 2629 -8009 4111 -12515 4273 -306 11 -955 19
-1210 15z"/>
<path d="M22355 42239 c-299 -9 -692 -32 -1020 -60 -4021 -336 -7839 -1944
-10901 -4590 -1152 -996 -2208 -2152 -3082 -3376 -2094 -2930 -3310 -6349
-3537 -9943 -29 -470 -38 -837 -32 -1415 6 -560 11 -721 42 -1160 294 -4183
1946 -8142 4711 -11290 520 -592 1178 -1251 1769 -1771 1052 -925 2199 -1729
3450 -2419 272 -150 979 -504 1255 -629 1316 -595 2596 -1016 3990 -1311 140
-30 255 -53 256 -52 1 1 -8 93 -21 205 -120 1027 -132 2138 -34 3197 190 2051
789 4033 1784 5900 47 88 85 161 85 163 0 1 -1597 2 -3550 2 l-3550 0 0 265 0
265 168 0 c568 0 1133 66 1444 167 308 100 606 320 778 573 154 226 210 486
262 1200 16 227 24 13601 8 14045 -21 580 -61 955 -126 1184 -97 338 -352 616
-738 802 -302 146 -771 219 -1498 236 l-298 6 0 264 0 264 5048 -4 c3562 -3
5118 -7 5287 -15 1031 -49 1599 -101 2200 -202 688 -115 1150 -252 1620 -479
836 -404 1500 -980 1987 -1726 409 -625 635 -1233 725 -1955 22 -174 24 -702
5 -865 -95 -774 -397 -1421 -953 -2041 -558 -622 -1505 -1145 -2807 -1548
-175 -54 -629 -182 -747 -210 -24 -6 52 -28 360 -106 1063 -267 1840 -535
2510 -865 520 -256 892 -509 1233 -839 l83 -81 77 29 c1328 488 2656 817 4414
1096 414 65 929 139 1703 245 1346 183 1865 262 2485 375 1077 197 1955 439
2768 760 131 52 132 53 132 84 0 108 -83 850 -136 1216 -402 2784 -1425 5464
-2985 7815 -748 1128 -1541 2091 -2520 3060 -920 911 -1903 1708 -2954 2397
-3321 2178 -7173 3261 -11150 3137z"/>
<path d="M158880 35029 c-1642 -103 -3007 -761 -4045 -1950 -760 -870 -1175
-1871 -1256 -3024 -17 -247 -6 -781 20 -1000 74 -611 227 -1120 491 -1645 424
-839 1092 -1601 1990 -2270 719 -535 1953 -1243 3445 -1974 931 -457 1696
-879 2202 -1213 1024 -677 1620 -1476 1758 -2358 23 -144 30 -435 16 -591 -57
-611 -318 -1141 -796 -1619 -413 -413 -883 -676 -1473 -824 -583 -146 -1289
-166 -1942 -55 -1048 179 -2072 723 -2992 1590 -1055 996 -1798 2439 -2196
4264 l-38 175 -257 3 -257 2 0 -3061 0 -3061 -472 5 c-493 5 -586 12 -813 58
-284 57 -475 136 -705 290 -134 89 -291 233 -370 338 -161 213 -213 422 -262
1051 -16 213 -25 13542 -8 13946 17 439 46 718 95 910 53 207 221 487 380 633
197 179 505 322 844 391 236 48 315 53 826 59 l490 6 3 253 2 252 -4890 0
-4890 0 0 -254 0 -254 493 -5 c527 -4 594 -10 837 -63 318 -70 584 -201 828
-406 158 -133 289 -317 341 -482 49 -154 84 -403 113 -816 17 -239 25 -13356
8 -13830 -19 -550 -56 -878 -121 -1072 -11 -35 -44 -110 -73 -169 -145 -289
-315 -459 -601 -600 -219 -108 -433 -169 -735 -211 -123 -17 -218 -21 -617
-25 l-473 -5 0 -254 0 -254 4885 0 4885 0 0 -215 0 -215 255 0 254 0 60 120
c190 380 415 628 737 814 270 156 522 210 804 173 283 -38 539 -116 1025 -315
1444 -590 2246 -780 3380 -799 1693 -28 3137 403 4295 1283 850 645 1506 1456
1888 2334 432 995 539 2203 292 3307 -203 909 -668 1767 -1320 2437 -644 661
-1562 1318 -2822 2019 -383 213 -638 345 -1463 759 -1854 928 -2540 1309
-3000 1663 -556 428 -975 886 -1173 1281 -97 194 -167 428 -196 652 -18 142
-21 444 -6 572 55 453 235 845 564 1227 319 371 722 643 1192 806 582 202
1345 249 2060 127 287 -49 683 -167 963 -285 492 -208 956 -497 1436 -896 194
-161 602 -566 749 -744 695 -839 1138 -1792 1375 -2960 23 -110 41 -211 41
-223 l0 -22 285 0 285 0 0 33 c0 18 -34 1416 -75 3107 -41 1691 -75 3078 -75
3083 0 4 -94 7 -210 7 -195 0 -210 -1 -210 -18 0 -37 -104 -433 -151 -577 -56
-169 -149 -368 -205 -435 -127 -152 -302 -233 -531 -247 -273 -16 -642 105
-1378 452 -507 239 -838 377 -1191 494 -526 176 -1098 283 -1714 321 -191 12
-694 11 -890 -1z"/>
<path d="M51302 34358 l3 -253 295 -6 c1009 -22 1478 -149 1846 -501 306 -293
377 -529 436 -1453 16 -248 24 -12775 9 -13380 -22 -873 -79 -1290 -207 -1524
-117 -214 -306 -399 -550 -539 -159 -91 -296 -138 -534 -186 -280 -56 -767
-96 -1167 -96 l-133 0 0 -255 0 -256 5098 4 c3715 3 5144 7 5272 15 96 7 270
19 385 27 2261 168 4002 821 5162 1939 526 507 903 1093 1118 1741 321 963
296 2116 -66 3027 -274 691 -796 1344 -1449 1811 -665 475 -1744 905 -3185
1267 -192 49 -343 91 -335 94 8 2 112 30 230 61 699 184 1342 417 1875 680
791 389 1291 804 1707 1415 335 491 525 1021 579 1613 17 189 6 640 -20 837
-65 476 -196 901 -413 1334 -358 715 -870 1311 -1518 1763 -338 236 -804 475
-1175 603 -556 191 -1292 323 -2225 399 -231 19 -316 25 -805 53 -145 8 -1590
12 -5218 15 l-5017 4 2 -253z m7528 -798 c1051 -32 1779 -150 2305 -375 246
-105 561 -293 775 -465 133 -107 341 -315 445 -445 258 -323 449 -699 561
-1105 196 -710 205 -1664 23 -2400 -140 -564 -402 -1032 -804 -1436 -284 -284
-572 -488 -958 -674 -401 -194 -868 -313 -1527 -389 -333 -39 -894 -71 -1242
-71 l-148 0 0 3685 0 3685 123 0 c67 0 268 -5 447 -10z m580 -8464 c1268 -87
2036 -290 2645 -699 374 -251 676 -561 938 -963 404 -622 635 -1327 697 -2123
13 -172 13 -620 0 -776 -69 -812 -315 -1512 -740 -2105 -587 -820 -1564 -1348
-2732 -1476 -222 -25 -664 -25 -816 -1 -333 53 -577 163 -766 346 -168 163
-271 351 -335 614 -42 172 -55 293 -54 512 1 105 4 1654 8 3444 l6 3254 462
-6 c254 -3 563 -13 687 -21z"/>
<path d="M68010 34356 l0 -254 493 -5 c527 -4 594 -10 837 -63 318 -70 584
-201 828 -406 158 -133 289 -317 341 -482 49 -154 84 -403 113 -816 17 -239
25 -13356 8 -13830 -19 -550 -56 -878 -121 -1072 -11 -35 -44 -110 -73 -169
-145 -289 -315 -459 -601 -600 -219 -108 -433 -169 -735 -211 -123 -17 -218
-21 -617 -25 l-473 -5 0 -254 0 -254 12715 0 12714 0 6 33 c9 52 695 6477 695
6509 l0 28 -280 0 -279 0 -21 -72 c-118 -402 -325 -1027 -450 -1363 -419
-1123 -809 -1856 -1319 -2480 -129 -158 -466 -499 -614 -621 -637 -524 -1345
-814 -2277 -933 -336 -43 -373 -44 -1625 -48 -1226 -5 -1627 2 -1973 32 -416
37 -570 82 -791 229 -210 140 -351 327 -415 549 -46 159 -84 432 -108 792 -19
279 -19 13512 0 13785 25 354 59 596 103 730 84 256 303 549 512 685 202 131
482 238 746 285 228 41 270 43 866 49 l590 6 3 253 2 252 -9400 0 -9400 0 0
-254z m9930 -280 c369 -54 625 -145 875 -313 240 -162 384 -315 482 -514 79
-160 123 -441 155 -979 19 -315 19 -13687 0 -13995 -41 -677 -95 -899 -289
-1193 -227 -342 -631 -550 -1238 -635 -134 -19 -198 -21 -610 -21 -384 0 -481
2 -590 17 -310 42 -529 104 -733 206 -206 104 -454 303 -572 460 -161 213
-213 422 -262 1051 -16 213 -25 13542 -8 13946 29 730 78 979 250 1259 138
225 282 359 520 483 243 127 495 198 845 237 179 20 1017 14 1175 -9z"/>
<path d="M93562 34358 l3 -253 490 -6 c524 -6 606 -12 845 -65 251 -55 446
-137 645 -271 240 -162 384 -315 482 -514 79 -160 123 -441 155 -979 19 -315
19 -13687 0 -13995 -41 -677 -95 -899 -289 -1193 -226 -341 -633 -551 -1233
-634 -123 -17 -218 -21 -622 -25 l-478 -5 0 -254 0 -254 8305 0 8304 0 6 33
c9 52 695 6477 695 6509 l0 28 -280 0 -279 0 -21 -72 c-118 -402 -325 -1027
-450 -1363 -419 -1123 -809 -1856 -1319 -2480 -129 -158 -466 -499 -614 -621
-637 -524 -1345 -814 -2277 -933 -336 -43 -373 -44 -1625 -48 -1226 -5 -1627
2 -1973 32 -416 37 -570 82 -791 229 -210 140 -351 327 -415 549 -46 159 -84
432 -108 792 -19 279 -19 13512 0 13785 25 354 59 596 103 730 84 256 303 549
512 685 202 131 482 238 746 285 228 41 270 43 866 49 l590 6 3 253 2 252
-4990 0 -4990 0 2 -252z"/>
<path d="M110352 34358 l3 -253 295 -6 c1009 -22 1478 -149 1846 -501 306
-293 377 -529 436 -1453 16 -248 24 -12775 9 -13380 -22 -873 -79 -1290 -207
-1524 -117 -214 -306 -399 -550 -539 -159 -91 -296 -138 -534 -186 -280 -56
-767 -96 -1167 -96 l-133 0 0 -255 0 -256 5098 4 c3715 3 5144 7 5272 15 96 7
270 19 385 27 2261 168 4002 821 5162 1939 526 507 903 1093 1118 1741 321
963 296 2116 -66 3027 -274 691 -796 1344 -1449 1811 -665 475 -1744 905
-3185 1267 -192 49 -343 91 -335 94 8 2 112 30 230 61 699 184 1342 417 1875
680 791 389 1291 804 1707 1415 335 491 525 1021 579 1613 17 189 6 640 -20
837 -65 476 -196 901 -413 1334 -358 715 -870 1311 -1518 1763 -338 236 -804
475 -1175 603 -556 191 -1292 323 -2225 399 -231 19 -316 25 -805 53 -145 8
-1590 12 -5218 15 l-5017 4 2 -253z m7528 -798 c1051 -32 1779 -150 2305 -375
246 -105 561 -293 775 -465 133 -107 341 -315 445 -445 258 -323 449 -699 561
-1105 196 -710 205 -1664 23 -2400 -140 -564 -402 -1032 -804 -1436 -284 -284
-572 -488 -958 -674 -401 -194 -868 -313 -1527 -389 -333 -39 -894 -71 -1242
-71 l-148 0 0 3685 0 3685 123 0 c67 0 268 -5 447 -10z m580 -8464 c1268 -87
2036 -290 2645 -699 374 -251 676 -561 938 -963 404 -622 635 -1327 697 -2123
13 -172 13 -620 0 -776 -69 -812 -315 -1512 -740 -2105 -587 -820 -1564 -1348
-2732 -1476 -222 -25 -664 -25 -816 -1 -333 53 -577 163 -766 346 -168 163
-271 351 -335 614 -42 172 -55 293 -54 512 1 105 4 1654 8 3444 l6 3254 462
-6 c254 -3 563 -13 687 -21z"/>
<path d="M127012 34358 l3 -253 490 -6 c524 -6 606 -12 845 -65 251 -55 446
-137 645 -271 240 -162 384 -315 482 -514 79 -160 123 -441 155 -979 19 -315
19 -13687 0 -13995 -41 -677 -95 -899 -289 -1193 -226 -341 -633 -551 -1233
-634 -123 -17 -218 -21 -622 -25 l-478 -5 0 -254 0 -254 8305 0 8304 0 6 33
c9 52 695 6477 695 6509 l0 28 -280 0 -279 0 -21 -72 c-118 -402 -325 -1027
-450 -1363 -419 -1123 -809 -1856 -1319 -2480 -129 -158 -466 -499 -614 -621
-637 -524 -1345 -814 -2277 -933 -336 -43 -373 -44 -1625 -48 -1226 -5 -1627
2 -1973 32 -416 37 -570 82 -791 229 -210 140 -351 327 -415 549 -46 159 -84
432 -108 792 -19 279 -19 13512 0 13785 25 354 59 596 103 730 84 256 303 549
512 685 202 131 482 238 746 285 228 41 270 43 866 49 l590 6 3 253 2 252
-4990 0 -4990 0 2 -252z"/>
<path d="M21130 28085 l0 -3795 128 0 c480 0 1135 45 1562 106 756 109 1271
291 1780 629 557 371 977 878 1208 1460 193 488 275 977 276 1645 0 364 -14
556 -60 840 -138 856 -495 1508 -1100 2012 -358 297 -779 516 -1245 648 -553
156 -1438 250 -2371 250 l-178 0 0 -3795z"/>
<path d="M45840 24324 c-52 -42 -189 -147 -305 -234 -1703 -1271 -3554 -2011
-6180 -2470 -597 -104 -1037 -170 -2214 -331 -2120 -290 -2952 -434 -3985
-690 -2069 -514 -3779 -1309 -5371 -2499 -698 -522 -1348 -1091 -2056 -1799
-500 -501 -817 -849 -1195 -1311 -1474 -1805 -2465 -3795 -2933 -5890 -160
-714 -247 -1331 -303 -2150 -20 -288 -17 -1282 5 -1590 88 -1246 311 -2370
662 -3330 21 -58 40 -106 41 -108 2 -4 387 203 569 306 1149 650 2427 1515
3631 2457 1984 1554 3827 3359 5407 5293 64 79 117 139 117 135 0 -14 -232
-441 -386 -711 -1157 -2023 -2659 -4064 -4233 -5752 -1254 -1344 -2661 -2566
-3980 -3455 l-163 -110 89 -12 c640 -87 1482 -84 2318 8 1573 172 3417 645
5315 1361 2409 908 4729 2141 6286 3339 874 673 2138 1886 3095 2969 3410
3862 5373 8443 5804 13540 67 793 91 1501 81 2370 -4 338 -11 643 -14 677 l-7
63 -95 -76z"/>
<path d="M21128 19634 c-2 -1952 0 -3585 4 -3629 25 -256 116 -525 241 -710
59 -86 197 -225 280 -283 64 -44 148 -92 161 -92 3 0 49 64 102 142 849 1239
1822 2354 2989 3423 507 465 1050 919 1528 1279 126 95 197 155 197 167 0 33
-80 335 -125 474 -303 919 -845 1649 -1549 2087 -630 391 -1433 587 -2746 668
-91 6 -371 13 -622 17 l-456 6 -4 -3549z"/>
</g>
</svg>
